<mxfile host="app.diagrams.net" modified="2020-09-16T01:21:34.936Z" agent="5.0 (Windows NT 6.1; WOW64) AppleWebKit/537.36 (KHTML, like Gecko) Chrome/72.0.3626.81 Safari/537.36 SE 2.X MetaSr 1.0" etag="U7PBAPUWI8JStFSksab_" version="13.7.1" type="github">
  <diagram id="0d7cefc2-ccd6-e077-73ed-a8e48b0cddf6" name="Page-1">
    <mxGraphModel dx="1987" dy="1109" grid="1" gridSize="10" guides="1" tooltips="1" connect="1" arrows="1" fold="1" page="1" pageScale="1" pageWidth="1169" pageHeight="827" background="#ffffff" math="0" shadow="0">
      <root>
        <mxCell id="0" />
        <mxCell id="1" parent="0" />
        <mxCell id="2" value="" style="swimlane;shadow=0;strokeColor=#4277BB;fillColor=#ffffff;fontColor=#4277BB;align=right;startSize=0;collapsible=0;strokeWidth=3;" parent="1" vertex="1">
          <mxGeometry x="20" y="14" width="1130" height="800" as="geometry" />
        </mxCell>
        <mxCell id="79" value="" style="swimlane;shadow=0;strokeColor=#4277BB;fillColor=#ffffff;fontColor=#4277BB;align=right;startSize=0;collapsible=0;strokeWidth=3;" parent="2" vertex="1">
          <mxGeometry x="720" y="480" width="350" height="260" as="geometry" />
        </mxCell>
        <mxCell id="xIBIwLFiV7QvSY9EjHSz-122" value="爬虫引擎" style="aspect=fixed;perimeter=ellipsePerimeter;html=1;align=center;shadow=0;dashed=0;fontColor=#4277BB;labelBackgroundColor=#ffffff;fontSize=16;spacingTop=3;image;image=img/lib/ibm/infrastructure/microservices_mesh.svg;strokeColor=#0066CC;fillColor=none;" vertex="1" parent="79">
          <mxGeometry x="230" y="57" width="73" height="73" as="geometry" />
        </mxCell>
        <mxCell id="xIBIwLFiV7QvSY9EjHSz-123" value="平台内网络管理" style="aspect=fixed;perimeter=ellipsePerimeter;html=1;align=center;shadow=0;dashed=0;fontColor=#4277BB;labelBackgroundColor=#ffffff;fontSize=16;spacingTop=3;image;image=img/lib/ibm/infrastructure/infrastructure_services.svg;strokeColor=#0066CC;fillColor=none;" vertex="1" parent="79">
          <mxGeometry x="70" y="57" width="73" height="73" as="geometry" />
        </mxCell>
        <mxCell id="xIBIwLFiV7QvSY9EjHSz-106" value="" style="swimlane;shadow=0;strokeColor=#4277BB;fillColor=#ffffff;fontColor=#4277BB;align=right;startSize=0;collapsible=0;strokeWidth=3;" vertex="1" parent="2">
          <mxGeometry x="100" y="480" width="440" height="260" as="geometry" />
        </mxCell>
        <mxCell id="xIBIwLFiV7QvSY9EjHSz-121" value="" style="aspect=fixed;perimeter=ellipsePerimeter;html=1;align=center;shadow=0;dashed=0;fontColor=#4277BB;labelBackgroundColor=#ffffff;fontSize=12;spacingTop=3;image;image=img/lib/ibm/management/content_management.svg;strokeColor=#0066CC;fillColor=none;" vertex="1" parent="xIBIwLFiV7QvSY9EjHSz-106">
          <mxGeometry x="350" y="47" width="60" height="60" as="geometry" />
        </mxCell>
        <mxCell id="xIBIwLFiV7QvSY9EjHSz-107" value="" style="swimlane;shadow=0;strokeColor=#4277BB;fillColor=#ffffff;fontColor=#4277BB;align=right;startSize=0;collapsible=0;strokeWidth=3;fontSize=17;" vertex="1" parent="2">
          <mxGeometry x="360" y="66" width="440" height="260" as="geometry" />
        </mxCell>
        <mxCell id="xIBIwLFiV7QvSY9EjHSz-116" value="" style="rounded=1;whiteSpace=wrap;html=1;fontSize=17;strokeColor=#0066CC;fillColor=none;verticalAlign=bottom;" vertex="1" parent="xIBIwLFiV7QvSY9EjHSz-107">
          <mxGeometry x="160" y="17" width="270" height="173" as="geometry" />
        </mxCell>
        <mxCell id="xIBIwLFiV7QvSY9EjHSz-115" value="应用服务" style="aspect=fixed;perimeter=ellipsePerimeter;html=1;align=center;shadow=0;dashed=0;fontColor=#4277BB;labelBackgroundColor=#ffffff;fontSize=17;spacingTop=3;image;image=img/lib/ibm/applications/app_server.svg;" vertex="1" parent="xIBIwLFiV7QvSY9EjHSz-107">
          <mxGeometry x="310" y="27" width="83" height="83" as="geometry" />
        </mxCell>
        <mxCell id="xIBIwLFiV7QvSY9EjHSz-117" value="&lt;font style=&quot;font-size: 16px&quot;&gt;认证服务&lt;/font&gt;" style="aspect=fixed;perimeter=ellipsePerimeter;html=1;align=center;shadow=0;dashed=0;fontColor=#4277BB;labelBackgroundColor=#ffffff;fontSize=12;spacingTop=3;image;image=img/lib/ibm/security/identity_provider.svg;strokeColor=#0066CC;fillColor=none;" vertex="1" parent="xIBIwLFiV7QvSY9EjHSz-107">
          <mxGeometry x="200" y="30" width="80" height="80" as="geometry" />
        </mxCell>
        <mxCell id="xIBIwLFiV7QvSY9EjHSz-118" value="底层云系统" style="aspect=fixed;perimeter=ellipsePerimeter;html=1;align=center;shadow=0;dashed=0;fontColor=#4277BB;labelBackgroundColor=#ffffff;fontSize=16;spacingTop=3;image;image=img/lib/ibm/data/cloud.svg;strokeColor=#0066CC;fillColor=none;" vertex="1" parent="xIBIwLFiV7QvSY9EjHSz-107">
          <mxGeometry x="40" y="35" width="75" height="75" as="geometry" />
        </mxCell>
        <mxCell id="xIBIwLFiV7QvSY9EjHSz-119" value="" style="html=1;labelBackgroundColor=#ffffff;startArrow=classic;startFill=1;startSize=6;endArrow=classic;endFill=1;endSize=6;jettySize=auto;orthogonalLoop=1;strokeWidth=1;fontSize=14;strokeColor=#0066CC;" edge="1" parent="xIBIwLFiV7QvSY9EjHSz-107">
          <mxGeometry width="60" height="60" relative="1" as="geometry">
            <mxPoint x="78" y="207" as="sourcePoint" />
            <mxPoint x="78" y="137" as="targetPoint" />
          </mxGeometry>
        </mxCell>
        <mxCell id="xIBIwLFiV7QvSY9EjHSz-108" value="" style="aspect=fixed;perimeter=ellipsePerimeter;html=1;align=center;shadow=0;dashed=0;fontColor=#4277BB;labelBackgroundColor=#ffffff;fontSize=12;spacingTop=3;image;image=img/lib/ibm/social/networking.svg;" vertex="1" parent="2">
          <mxGeometry x="600" y="386" width="60" height="60" as="geometry" />
        </mxCell>
        <mxCell id="xIBIwLFiV7QvSY9EjHSz-109" value="" style="html=1;labelBackgroundColor=#ffffff;startArrow=classic;startFill=1;startSize=6;endArrow=classic;endFill=1;endSize=6;jettySize=auto;orthogonalLoop=1;strokeWidth=1;fontSize=14;entryX=0;entryY=1;entryDx=0;entryDy=0;exitX=1;exitY=0;exitDx=0;exitDy=0;strokeColor=#0066CC;" edge="1" parent="2" source="xIBIwLFiV7QvSY9EjHSz-106" target="xIBIwLFiV7QvSY9EjHSz-108">
          <mxGeometry width="60" height="60" relative="1" as="geometry">
            <mxPoint x="500" y="460" as="sourcePoint" />
            <mxPoint x="560" y="400" as="targetPoint" />
          </mxGeometry>
        </mxCell>
        <mxCell id="xIBIwLFiV7QvSY9EjHSz-110" value="" style="html=1;labelBackgroundColor=#ffffff;startArrow=classic;startFill=1;startSize=6;endArrow=classic;endFill=1;endSize=6;jettySize=auto;orthogonalLoop=1;strokeWidth=1;fontSize=14;entryX=1;entryY=1;entryDx=0;entryDy=0;exitX=0;exitY=0;exitDx=0;exitDy=0;strokeColor=#0066CC;" edge="1" parent="2" source="79" target="xIBIwLFiV7QvSY9EjHSz-108">
          <mxGeometry width="60" height="60" relative="1" as="geometry">
            <mxPoint x="680" y="480" as="sourcePoint" />
            <mxPoint x="740" y="420" as="targetPoint" />
          </mxGeometry>
        </mxCell>
        <mxCell id="xIBIwLFiV7QvSY9EjHSz-111" value="" style="html=1;labelBackgroundColor=#ffffff;startArrow=classic;startFill=1;startSize=6;endArrow=classic;endFill=1;endSize=6;jettySize=auto;orthogonalLoop=1;strokeWidth=1;fontSize=14;entryX=0.526;entryY=1.002;entryDx=0;entryDy=0;entryPerimeter=0;strokeColor=#0066CC;" edge="1" parent="2" source="xIBIwLFiV7QvSY9EjHSz-108" target="xIBIwLFiV7QvSY9EjHSz-107">
          <mxGeometry width="60" height="60" relative="1" as="geometry">
            <mxPoint x="550" y="377" as="sourcePoint" />
            <mxPoint x="610" y="317" as="targetPoint" />
          </mxGeometry>
        </mxCell>
        <mxCell id="xIBIwLFiV7QvSY9EjHSz-112" value="" style="html=1;labelBackgroundColor=#ffffff;jettySize=auto;orthogonalLoop=1;strokeWidth=1;fontSize=14;endArrow=none;endFill=0;exitX=0;exitY=0.75;exitDx=0;exitDy=0;entryX=1;entryY=0.75;entryDx=0;entryDy=0;strokeColor=#0066CC;" edge="1" parent="2" source="xIBIwLFiV7QvSY9EjHSz-106" target="xIBIwLFiV7QvSY9EjHSz-106">
          <mxGeometry width="60" height="60" relative="1" as="geometry">
            <mxPoint x="270" y="577" as="sourcePoint" />
            <mxPoint x="330" y="517" as="targetPoint" />
          </mxGeometry>
        </mxCell>
        <mxCell id="xIBIwLFiV7QvSY9EjHSz-113" value="" style="html=1;labelBackgroundColor=#ffffff;jettySize=auto;orthogonalLoop=1;strokeWidth=1;fontSize=14;endArrow=none;endFill=0;exitX=0;exitY=0.75;exitDx=0;exitDy=0;entryX=1;entryY=0.75;entryDx=0;entryDy=0;strokeColor=#0066CC;" edge="1" parent="2" source="79" target="79">
          <mxGeometry width="60" height="60" relative="1" as="geometry">
            <mxPoint x="830" y="587" as="sourcePoint" />
            <mxPoint x="890" y="527" as="targetPoint" />
          </mxGeometry>
        </mxCell>
        <mxCell id="xIBIwLFiV7QvSY9EjHSz-114" value="" style="html=1;labelBackgroundColor=#ffffff;jettySize=auto;orthogonalLoop=1;strokeWidth=1;fontSize=14;endArrow=none;endFill=0;exitX=0.004;exitY=0.795;exitDx=0;exitDy=0;exitPerimeter=0;entryX=1;entryY=0.795;entryDx=0;entryDy=0;entryPerimeter=0;strokeColor=#0066CC;" edge="1" parent="2" source="xIBIwLFiV7QvSY9EjHSz-107" target="xIBIwLFiV7QvSY9EjHSz-107">
          <mxGeometry width="60" height="60" relative="1" as="geometry">
            <mxPoint x="430" y="293" as="sourcePoint" />
            <mxPoint x="490" y="233" as="targetPoint" />
          </mxGeometry>
        </mxCell>
        <mxCell id="xIBIwLFiV7QvSY9EjHSz-120" value="" style="aspect=fixed;perimeter=ellipsePerimeter;html=1;align=center;shadow=0;dashed=0;fontColor=#4277BB;labelBackgroundColor=#ffffff;fontSize=12;spacingTop=3;image;image=img/lib/ibm/vpc/Internet.svg;strokeColor=#0066CC;fillColor=none;" vertex="1" parent="2">
          <mxGeometry x="980" y="247" width="60" height="60" as="geometry" />
        </mxCell>
        <mxCell id="6" value="Application component" style="rounded=0;html=1;shadow=0;labelBackgroundColor=none;strokeColor=none;strokeWidth=2;fillColor=#EBC01A;gradientColor=none;fontSize=12;fontColor=#4277BB;align=left;labelPosition=right;verticalLabelPosition=middle;verticalAlign=middle;spacingLeft=5;" parent="1" vertex="1">
          <mxGeometry x="30" y="857" width="20" height="10" as="geometry" />
        </mxCell>
        <mxCell id="7" value="Infrastructure services" style="rounded=0;html=1;shadow=0;labelBackgroundColor=none;strokeColor=none;strokeWidth=2;fillColor=#8DC642;gradientColor=none;fontSize=12;fontColor=#4277BB;align=left;labelPosition=right;verticalLabelPosition=middle;verticalAlign=middle;spacingLeft=5;" parent="1" vertex="1">
          <mxGeometry x="30" y="877" width="20" height="10" as="geometry" />
        </mxCell>
        <mxCell id="8" value="Management" style="rounded=0;html=1;shadow=0;labelBackgroundColor=none;strokeColor=none;strokeWidth=2;fillColor=#0DB39D;gradientColor=none;fontSize=12;fontColor=#4277BB;align=left;labelPosition=right;verticalLabelPosition=middle;verticalAlign=middle;spacingLeft=5;" parent="1" vertex="1">
          <mxGeometry x="30" y="897" width="20" height="10" as="geometry" />
        </mxCell>
        <mxCell id="9" value="Data store" style="rounded=0;html=1;shadow=0;labelBackgroundColor=none;strokeColor=none;strokeWidth=2;fillColor=#335D81;gradientColor=none;fontSize=12;fontColor=#4277BB;align=left;labelPosition=right;verticalLabelPosition=middle;verticalAlign=middle;spacingLeft=5;" parent="1" vertex="1">
          <mxGeometry x="30" y="917" width="20" height="10" as="geometry" />
        </mxCell>
        <mxCell id="13" value="LEGEND" style="text;html=1;align=left;verticalAlign=middle;fontColor=#4277BB;shadow=0;dashed=0;strokeColor=none;fillColor=none;labelBackgroundColor=none;fontStyle=1;fontSize=14;spacingLeft=0;" parent="1" vertex="1">
          <mxGeometry x="30" y="827" width="150" height="20" as="geometry" />
        </mxCell>
        <mxCell id="102" value="Scalable" style="aspect=fixed;perimeter=ellipsePerimeter;html=1;align=left;shadow=0;image;image=img/lib/ibm/miscellaneous/scalable.svg;rounded=0;labelBackgroundColor=none;strokeColor=none;strokeWidth=2;fillColor=#335D81;gradientColor=none;fontSize=12;fontColor=#4277BB;verticalAlign=middle;spacingLeft=7;labelPosition=right;verticalLabelPosition=middle;" parent="1" vertex="1">
          <mxGeometry x="33" y="935" width="15" height="15" as="geometry" />
        </mxCell>
      </root>
    </mxGraphModel>
  </diagram>
</mxfile>
